# This file uses centimeters as units for non-parametric coordinates.

mtllib patitas.mtl
g default
v 0.951268 -0.094178 -0.435867
v 0.951507 -0.094178 -0.117388
v 0.920459 1.336979 -0.168545
v 0.920584 1.336979 -0.001605
v 0.956842 1.336979 -0.168572
v 0.956968 1.336979 -0.001632
v 0.987652 -0.094178 -0.435894
v 0.987891 -0.094178 -0.117415
vt 0.375000 0.000000
vt 0.625000 0.000000
vt 0.625000 0.250000
vt 0.375000 0.250000
vt 0.625000 0.500000
vt 0.375000 0.500000
vt 0.625000 0.750000
vt 0.375000 0.750000
vt 0.625000 1.000000
vt 0.375000 1.000000
vt 0.875000 0.000000
vt 0.875000 0.250000
vt 0.125000 0.000000
vt 0.125000 0.250000
vn -0.999765 -0.021663 0.000750
vn -0.999765 -0.021663 0.000750
vn -0.999765 -0.021663 0.000750
vn -0.999765 -0.021663 0.000750
vn 0.000000 1.000000 0.000000
vn 0.000000 1.000000 0.000000
vn 0.000000 1.000000 0.000000
vn 0.000000 1.000000 0.000000
vn 0.999765 0.021662 -0.000750
vn 0.999765 0.021662 -0.000750
vn 0.999765 0.021662 -0.000750
vn 0.999765 0.021662 -0.000750
vn 0.000000 -1.000000 0.000000
vn 0.000000 -1.000000 0.000000
vn 0.000000 -1.000000 0.000000
vn 0.000000 -1.000000 0.000000
vn 0.000748 -0.080622 0.996744
vn 0.000748 -0.080622 0.996744
vn 0.000748 -0.080622 0.996744
vn 0.000748 -0.080622 0.996744
vn -0.000738 0.183598 -0.983001
vn -0.000738 0.183598 -0.983001
vn -0.000738 0.183598 -0.983001
vn -0.000738 0.183598 -0.983001
s off
g polySurface258 pizzarron_pCube3
usemtl pizzarron_initialShadingGroup
f 1/1/1 2/2/2 4/3/3 3/4/4
f 3/4/5 4/3/6 6/5/7 5/6/8
f 5/6/9 6/5/10 8/7/11 7/8/12
f 7/8/13 8/7/14 2/9/15 1/10/16
f 2/2/17 8/11/18 6/12/19 4/3/20
f 7/13/21 1/1/22 3/4/23 5/14/24
g default
v -0.932491 -0.092421 -0.198712
v -0.941307 -0.091978 0.063310
v -0.862110 1.337009 -0.134981
v -0.871022 1.337452 -0.000526
v -0.825771 1.335221 -0.135008
v -0.834683 1.335664 -0.000553
v -0.896151 -0.094208 -0.198739
v -0.904968 -0.093765 0.063283
vt 0.375000 0.000000
vt 0.625000 0.000000
vt 0.625000 0.250000
vt 0.375000 0.250000
vt 0.625000 0.500000
vt 0.375000 0.500000
vt 0.625000 0.750000
vt 0.375000 0.750000
vt 0.625000 1.000000
vt 0.375000 1.000000
vt 0.875000 0.000000
vt 0.875000 0.250000
vt 0.125000 0.000000
vt 0.125000 0.250000
vn -0.997792 0.049093 -0.044726
vn -0.997792 0.049093 -0.044726
vn -0.997792 0.049093 -0.044726
vn -0.997792 0.049093 -0.044726
vn 0.049146 0.998792 -0.000036
vn 0.049146 0.998792 -0.000036
vn 0.049146 0.998792 -0.000036
vn 0.049146 0.998792 -0.000036
vn 0.997792 -0.049093 0.044726
vn 0.997792 -0.049093 0.044726
vn 0.997792 -0.049093 0.044726
vn 0.997792 -0.049093 0.044726
vn -0.049147 -0.998792 0.000037
vn -0.049147 -0.998792 0.000037
vn -0.049147 -0.998792 0.000037
vn -0.049147 -0.998792 0.000037
vn 0.002938 0.044470 0.999006
vn 0.002938 0.044470 0.999006
vn 0.002938 0.044470 0.999006
vn 0.002938 0.044470 0.999006
vn 0.001438 0.044470 -0.999010
vn 0.001438 0.044470 -0.999010
vn 0.001438 0.044470 -0.999010
vn 0.001438 0.044470 -0.999010
s off
g pizzarron_pCube3 polySurface259
usemtl pizzarron_initialShadingGroup
f 9/15/25 10/16/26 12/17/27 11/18/28
f 11/18/29 12/17/30 14/19/31 13/20/32
f 13/20/33 14/19/34 16/21/35 15/22/36
f 15/22/37 16/21/38 10/23/39 9/24/40
f 10/16/41 16/25/42 14/26/43 12/17/44
f 15/27/45 9/15/46 11/18/47 13/28/48
